# xmcd
#
# Track frame offsets: 
#        150
#        10920
#        36862
#        46486
#        67330
#        80030
#        90245
#        96793
#        113533
#        126798
#        138232
#        162531
#        174539
#        185748
#        199088
#        217514
#        240285
#        258454
#
# Disc length: 3639 seconds
#
# Revision: 2
# Processed by: cddbd v1.5.2PL0 Copyright (c) Steve Scherf et al.
# Submitted via: ExactAudioCopy v0.99pb5
#
DISCID=f20e3512
DTITLE=Tim Hardin - Tim Hardin 4
DYEAR=1969
DGENRE=Blues
TTITLE0=Airmobile
TTITLE1=Whiskey, Whiskey
TTITLE2=Seventh Son
TTITLE3=How Long
TTITLE4=Danville Dame
TTITLE5=Ain't Gonna Do Without (Part 1)
TTITLE6=Ain't Gonna Do Without (Part 2)
TTITLE7=House Of The Rising Sun
TTITLE8=Bo Diddley
TTITLE9=I Can't Slow Down
TTITLE10=Hello Baby
TTITLE11=Rolling Stone
TTITLE12=You Got A Reputation
TTITLE13=Keep Your Hands Off Her
TTITLE14=Nobody Loves You (When You're Down And Out)
TTITLE15=Hoochie Koochie Man
TTITLE16=So Glad You're Mine
TTITLE17=You Can't Judge A Book By Its Cover
EXTD=YEAR: 1969
EXTT0=
EXTT1=
EXTT2=
EXTT3=
EXTT4=
EXTT5=
EXTT6=
EXTT7=
EXTT8=
EXTT9=
EXTT10=
EXTT11=
EXTT12=
EXTT13=
EXTT14=
EXTT15=
EXTT16=
EXTT17=
PLAYORDER=
